<?xml version="1.0" standalone="no"?><!DOCTYPE svg PUBLIC "-//W3C//DTD SVG 1.1//EN" "http://www.w3.org/Graphics/SVG/1.1/DTD/svg11.dtd"><svg t="1717601607512" class="icon" viewBox="0 0 1024 1024" version="1.1" xmlns="http://www.w3.org/2000/svg" p-id="8549" xmlns:xlink="http://www.w3.org/1999/xlink" width="200" height="200"><path d="M768.657 63.705l-576.797 0c-35.335 0-63.984 28.656-63.984 63.984l0 767.735c0 35.328 28.649 63.965 63.984 63.965l576.797 0c35.335 0 63.977-28.636 63.977-63.965l0-767.735C832.634 92.361 803.991 63.705 768.657 63.705zM768.657 127.689l0 639.768-576.797 0 0-639.768L768.657 127.689zM448.77 895.424l-256.91 0 0-63.984 256.91 0L448.77 895.424zM512.747 895.424l0-63.984 255.91 0 0 63.984L512.747 895.424z" fill="#272636" p-id="8550"></path></svg>